# xmcd
#
# Track frame offsets:
#	150
#	19087
#	39938
#	56585
#	82514
#	115931
#	142850
#	155457
#	166148
#	185110
#	233392
#
# Disc length: 3372 seconds
#
# Revision: 0
# Processed by: cddbd v1.5.2PL0 Copyright (c) Steve Scherf et al.
# Submitted via: EasyCDDAExtractor 15.3.0.1
#
DISCID=750d2a0b
DTITLE=Luther Allison - Bad News Is Coming
DYEAR=1972
DGENRE=Blues
TTITLE0=The Little Red Rooster
TTITLE1=Evil Is Going On
TTITLE2=Raggedy and Dirty
TTITLE3=Rock Me Baby
TTITLE4=Bad News Is Coming
TTITLE5=Cut You A-Loose
TTITLE6=Dust My Broom
TTITLE7=The Stumble
TTITLE8=Sweet Home Chicago
TTITLE9=It's Been a Long Time
TTITLE10=Take My Love
EXTD=
EXTT0=
EXTT1=
EXTT2=
EXTT3=
EXTT4=
EXTT5=
EXTT6=
EXTT7=
EXTT8=
EXTT9=
EXTT10=
PLAYORDER=
